# xmcd
#
# Track frame offsets: 
#        150
#        22988
#        38296
#        54838
#        71757
#        89846
#        103867
#        118311
#        132549
#        154196
#        166595
#        185889
#        206698
#        229213
#
# Disc length: 3299 seconds
#
# Revision: 0
# Processed by: cddbd v1.5.2PL0 Copyright (c) Steve Scherf et al.
# Submitted via: ExactAudioCopy v0.99pb5
#
DISCID=c40ce10e
DTITLE=Duende - New Words In The Dictionary
DYEAR=2009
DGENRE=Blues
TTITLE0=New Words In The Dictionary
TTITLE1=Naughty
TTITLE2=Song About Nature
TTITLE3=Flowers Are Singing
TTITLE4=Caterpillar
TTITLE5=Sun Told me
TTITLE6=Blues In The Mirror
TTITLE7=Afrika Lullaby
TTITLE8=You Are Late
TTITLE9=I am Sorry
TTITLE10=Funny Clown
TTITLE11=Lonely Cat
TTITLE12=Don´t Say Anything
TTITLE13=Fire In The Sea
EXTD=
EXTT0=
EXTT1=
EXTT2=
EXTT3=
EXTT4=
EXTT5=
EXTT6=
EXTT7=
EXTT8=
EXTT9=
EXTT10=
EXTT11=
EXTT12=
EXTT13=
PLAYORDER=
